<mxfile host="Electron" modified="2023-06-07T08:50:03.927Z" agent="Mozilla/5.0 (Windows NT 10.0; Win64; x64) AppleWebKit/537.36 (KHTML, like Gecko) draw.io/21.2.8 Chrome/112.0.5615.165 Electron/24.2.0 Safari/537.36" etag="vzB1zcxkX2ZZ8eQu9vpM" version="21.2.8" type="device">
  <diagram name="Page-1" id="1TMW-RclYMM9wpwP4guP">
    <mxGraphModel dx="1418" dy="820" grid="1" gridSize="10" guides="1" tooltips="1" connect="1" arrows="1" fold="1" page="1" pageScale="1" pageWidth="1100" pageHeight="850" math="0" shadow="0">
      <root>
        <mxCell id="0" />
        <mxCell id="1" parent="0" />
        <mxCell id="dgAyAWoa_-RV4_hqZmzI-10" value="" style="rounded=0;whiteSpace=wrap;html=1;fillColor=#f5f5f5;strokeColor=#666666;fontColor=#333333;" vertex="1" parent="1">
          <mxGeometry x="186" y="180" width="730" height="480" as="geometry" />
        </mxCell>
        <mxCell id="dgAyAWoa_-RV4_hqZmzI-4" value="Remove ansible service account from AD group via CAMT" style="rounded=1;whiteSpace=wrap;html=1;fillColor=#d5e8d4;strokeColor=#82b366;" vertex="1" parent="1">
          <mxGeometry x="490" y="550" width="120" height="60" as="geometry" />
        </mxCell>
        <mxCell id="dgAyAWoa_-RV4_hqZmzI-8" value="Add ansible service account to AD group via CAMT" style="rounded=1;whiteSpace=wrap;html=1;fillColor=#d5e8d4;strokeColor=#82b366;" vertex="1" parent="1">
          <mxGeometry x="490" y="230" width="120" height="60" as="geometry" />
        </mxCell>
        <mxCell id="dgAyAWoa_-RV4_hqZmzI-2" value="Ansible Service account" style="rounded=1;whiteSpace=wrap;html=1;fillColor=#d5e8d4;strokeColor=#82b366;" vertex="1" parent="1">
          <mxGeometry x="255" y="390" width="120" height="60" as="geometry" />
        </mxCell>
        <mxCell id="dgAyAWoa_-RV4_hqZmzI-7" style="edgeStyle=orthogonalEdgeStyle;rounded=0;orthogonalLoop=1;jettySize=auto;html=1;entryX=0;entryY=0.5;entryDx=0;entryDy=0;" edge="1" parent="1" source="dgAyAWoa_-RV4_hqZmzI-1" target="dgAyAWoa_-RV4_hqZmzI-6">
          <mxGeometry relative="1" as="geometry" />
        </mxCell>
        <mxCell id="dgAyAWoa_-RV4_hqZmzI-5" style="edgeStyle=orthogonalEdgeStyle;rounded=0;orthogonalLoop=1;jettySize=auto;html=1;" edge="1" parent="1" source="dgAyAWoa_-RV4_hqZmzI-4" target="dgAyAWoa_-RV4_hqZmzI-1">
          <mxGeometry relative="1" as="geometry" />
        </mxCell>
        <mxCell id="dgAyAWoa_-RV4_hqZmzI-6" value="Target servers&lt;br&gt;windows/linux" style="rounded=1;whiteSpace=wrap;html=1;fillColor=#d5e8d4;strokeColor=#82b366;" vertex="1" parent="1">
          <mxGeometry x="730" y="390" width="120" height="60" as="geometry" />
        </mxCell>
        <mxCell id="dgAyAWoa_-RV4_hqZmzI-9" style="edgeStyle=orthogonalEdgeStyle;rounded=0;orthogonalLoop=1;jettySize=auto;html=1;" edge="1" parent="1" source="dgAyAWoa_-RV4_hqZmzI-8" target="dgAyAWoa_-RV4_hqZmzI-1">
          <mxGeometry relative="1" as="geometry" />
        </mxCell>
        <mxCell id="dgAyAWoa_-RV4_hqZmzI-1" value="AD group which grants elevated permission on target servers" style="rounded=1;whiteSpace=wrap;html=1;fillColor=#d5e8d4;strokeColor=#82b366;" vertex="1" parent="1">
          <mxGeometry x="490" y="390" width="120" height="60" as="geometry" />
        </mxCell>
        <mxCell id="dgAyAWoa_-RV4_hqZmzI-3" style="edgeStyle=orthogonalEdgeStyle;rounded=0;orthogonalLoop=1;jettySize=auto;html=1;entryX=0;entryY=0.5;entryDx=0;entryDy=0;" edge="1" parent="1" source="dgAyAWoa_-RV4_hqZmzI-2" target="dgAyAWoa_-RV4_hqZmzI-1">
          <mxGeometry relative="1" as="geometry" />
        </mxCell>
      </root>
    </mxGraphModel>
  </diagram>
</mxfile>
